<?xml version="1.0" encoding="UTF-8" standalone="no"?>
<!-- Created with Inkscape (http://www.inkscape.org/) -->

<svg
   xmlns:dc="http://purl.org/dc/elements/1.1/"
   xmlns:cc="http://creativecommons.org/ns#"
   xmlns:rdf="http://www.w3.org/1999/02/22-rdf-syntax-ns#"
   xmlns:svg="http://www.w3.org/2000/svg"
   xmlns="http://www.w3.org/2000/svg"
   xmlns:sodipodi="http://sodipodi.sourceforge.net/DTD/sodipodi-0.dtd"
   xmlns:inkscape="http://www.inkscape.org/namespaces/inkscape"
   width="300"
   height="300"
   viewBox="0 0 300.00001 300.00001"
   id="svg2"
   version="1.1"
   inkscape:version="0.91 r13725"
   sodipodi:docname="logo.svg"
   inkscape:export-filename="/home/ckoerner/Dokumente/ViennaKaggle/logo.png"
   inkscape:export-xdpi="320"
   inkscape:export-ydpi="320">
  <defs
     id="defs4" />
  <sodipodi:namedview
     id="base"
     pagecolor="#ffffff"
     bordercolor="#666666"
     borderopacity="1.0"
     inkscape:pageopacity="0.0"
     inkscape:pageshadow="2"
     inkscape:zoom="0.98994949"
     inkscape:cx="268.44265"
     inkscape:cy="-7.9965483"
     inkscape:document-units="px"
     inkscape:current-layer="layer1"
     showgrid="false"
     units="px"
     showguides="true"
     inkscape:guide-bbox="true"
     inkscape:window-width="1855"
     inkscape:window-height="1056"
     inkscape:window-x="65"
     inkscape:window-y="24"
     inkscape:window-maximized="1">
    <sodipodi:guide
       position="60.609155,147.48228"
       orientation="1,0"
       id="guide4185" />
    <sodipodi:guide
       position="240.41631,358.60417"
       orientation="1,0"
       id="guide4187" />
    <sodipodi:guide
       position="-128.28938,59.599002"
       orientation="0,1"
       id="guide4208" />
  </sodipodi:namedview>
  <metadata
     id="metadata7">
    <rdf:RDF>
      <cc:Work
         rdf:about="">
        <dc:format>image/svg+xml</dc:format>
        <dc:type
           rdf:resource="http://purl.org/dc/dcmitype/StillImage" />
        <dc:title></dc:title>
      </cc:Work>
    </rdf:RDF>
  </metadata>
  <g
     inkscape:label="Ebene 1"
     inkscape:groupmode="layer"
     id="layer1"
     transform="translate(0,-752.36208)">
    <rect
       style="fill:#33333f;fill-opacity:0.94117647;stroke:none;stroke-width:0.5;stroke-miterlimit:4;stroke-dasharray:none;stroke-dashoffset:0;stroke-opacity:1"
       id="rect4166"
       width="300"
       height="300"
       x="0"
       y="752.36212" />
    <g
       style="font-style:normal;font-weight:normal;font-size:44.42792892px;line-height:125%;font-family:sans-serif;letter-spacing:0px;word-spacing:0px;fill:#0095cb;fill-opacity:1;stroke:#0095cb;stroke-width:1px;stroke-linecap:butt;stroke-linejoin:miter;stroke-opacity:1"
       id="text4147"
       transform="translate(-174.57307,242.45214)">
      <path
         d="m 258.19125,693.48835 4.01327,0 0,25.93617 11.90963,-10.47788 5.09794,0 -12.88584,11.3673 13.42817,12.92922 -5.2064,0 -12.3435,-11.86624 0,11.86624 -4.01327,0 z"
         id="path4152"
         inkscape:connector-curvature="0"
         sodipodi:nodetypes="cccccccccccc"
         style="stroke:#0095cb;stroke-opacity:1;fill:#0095cb;fill-opacity:1" />
      <path
         d="m 294.37572,721.02982 q -4.83761,0 -6.70324,1.10636 -1.86562,1.10636 -1.86562,3.77464 0,2.12595 1.38837,3.38416 1.41006,1.23652 3.81802,1.23652 3.31908,0 5.31487,-2.34288 2.01748,-2.36457 2.01748,-6.26937 l 0,-0.88943 -3.96988,0 z m 7.96145,-1.64869 0,13.86203 -3.99157,0 0,-3.68786 q -1.36668,2.21272 -3.40585,3.27569 -2.03918,1.04128 -4.98947,1.04128 -3.73125,0 -5.94397,-2.08256 -2.19103,-2.10425 -2.19103,-5.61857 0,-4.10004 2.73336,-6.1826 2.75506,-2.08256 8.20008,-2.08256 l 5.59688,0 0,-0.39048 q 0,-2.75505 -1.82224,-4.25189 -1.80055,-1.51853 -5.07624,-1.51853 -2.08256,0 -4.05665,0.49895 -1.97409,0.49894 -3.79633,1.49684 l 0,-3.68787 q 2.19102,-0.84604 4.25189,-1.25821 2.06086,-0.43387 4.01326,-0.43387 5.27148,0 7.87468,2.73336 2.6032,2.73336 2.6032,8.28685 z"
         style="stroke:#0095cb;stroke-opacity:1;fill:#0095cb;fill-opacity:1"
         id="path4154"
         inkscape:connector-curvature="0" />
      <path
         d="m 326.56861,720.81289 c 0,-2.89245 -0.60018,-5.13409 -1.80054,-6.72493 -1.1859,-1.59085 -2.85629,-2.38627 -5.01116,-2.38627 -2.14041,0 -3.81079,0.79542 -5.01116,2.38627 -1.1859,1.59084 -1.77885,3.83248 -1.77885,6.72493 0,2.87798 0.59295,5.11239 1.77885,6.70324 1.20037,1.59084 2.87075,2.38626 5.01116,2.38626 2.15487,0 3.82526,-0.79542 5.01116,-2.38626 1.20036,-1.59085 1.80054,-3.82526 1.80054,-6.70324 z m 3.99158,9.4149 c 0,0.68447 -0.0251,7.33984 -0.0754,7.96609 -0.25364,3.15813 -1.14685,5.57599 -2.67961,7.25357 -1.8367,2.02471 -4.6496,3.03707 -8.4387,3.03707 -1.40283,0 -2.72613,-0.10847 -3.96988,-0.3254 -1.24375,-0.20247 -2.45134,-0.52064 -3.62278,-0.95451 l 0,-3.8831 c 1.17144,0.63634 2.32842,1.10636 3.47093,1.41007 1.14251,0.30371 2.30672,0.45556 3.49262,0.45556 2.61767,0 4.5773,-0.68696 5.87889,-2.06087 1.03261,-1.0785 1.65562,-2.59847 1.86902,-4.5599 0.0556,-0.51095 0.0834,-7.05184 0.0834,-7.6227 l 0,-1.97409 c -0.82435,1.43176 -1.88009,2.50196 -3.16722,3.21061 -1.28714,0.70865 -2.82737,1.06297 -4.62068,1.06297 -2.97921,0 -5.37994,-1.13528 -7.20218,-3.40585 -1.82224,-2.27057 -2.73336,-5.27871 -2.73336,-9.02442 0,-3.76018 0.91112,-6.77555 2.73336,-9.04612 1.82224,-2.27057 4.22297,-3.40585 7.20218,-3.40585 1.79331,0 3.33354,0.35432 4.62068,1.06297 1.28713,0.70865 2.34287,1.77886 3.16722,3.21062 l 0,-3.68787 3.99158,0 z"
         id="path4156"
         inkscape:connector-curvature="0"
         sodipodi:nodetypes="scscscscssscscccsscsscssssssscccs"
         style="stroke:#0095cb;stroke-opacity:1;fill:#0095cb;fill-opacity:1" />
      <path
         d="m 354.76994,720.81289 c 0,-2.89245 -0.60018,-5.13409 -1.80055,-6.72493 -1.1859,-1.59085 -2.85629,-2.38627 -5.01116,-2.38627 -2.14041,0 -3.81079,0.79542 -5.01115,2.38627 -1.18591,1.59084 -1.77886,3.83248 -1.77886,6.72493 0,2.87798 0.59295,5.11239 1.77886,6.70324 1.20036,1.59084 2.87074,2.38626 5.01115,2.38626 2.15487,0 3.82526,-0.79542 5.01116,-2.38626 1.20037,-1.59085 1.80055,-3.82526 1.80055,-6.70324 z m 3.99157,9.4149 c 0,0.37013 -0.007,6.73175 -0.0221,7.08486 -0.14965,3.59284 -1.06065,6.30444 -2.73299,8.1348 -1.8367,2.02471 -4.6496,3.03707 -8.43871,3.03707 -1.40283,0 -2.72612,-0.10847 -3.96987,-0.3254 -1.24375,-0.20247 -2.45135,-0.52064 -3.62279,-0.95451 l 0,-3.8831 c 1.17144,0.63634 2.32842,1.10636 3.47093,1.41007 1.14252,0.30371 2.30673,0.45556 3.49263,0.45556 2.61766,0 4.57729,-0.68696 5.87889,-2.06087 1.10015,-1.14904 1.73536,-2.79918 1.90563,-4.95041 0.0312,-0.39393 0.0468,-6.80466 0.0468,-7.23219 l 0,-1.97409 c -0.82435,1.43176 -1.88009,2.50196 -3.16723,3.21061 -1.28713,0.70865 -2.82736,1.06297 -4.62068,1.06297 -2.97921,0 -5.37994,-1.13528 -7.20218,-3.40585 -1.82224,-2.27057 -2.73336,-5.27871 -2.73336,-9.02442 0,-3.76018 0.91112,-6.77555 2.73336,-9.04612 1.82224,-2.27057 4.22297,-3.40585 7.20218,-3.40585 1.79332,0 3.33355,0.35432 4.62068,1.06297 1.28714,0.70865 2.34288,1.77886 3.16723,3.21062 l 0,-3.68787 3.99157,0 z"
         id="path4158"
         inkscape:connector-curvature="0"
         sodipodi:nodetypes="scscscscssscscccsscsscssssssscccs"
         style="stroke:#0095cb;stroke-opacity:1;fill:#0095cb;fill-opacity:1" />
      <path
         d="m 366.98327,693.48835 3.99158,0 0,39.75481 -3.99158,0 z"
         id="path4160"
         inkscape:connector-curvature="0"
         sodipodi:nodetypes="ccccc"
         style="stroke:#0095cb;stroke-opacity:1;fill:#0095cb;fill-opacity:1" />
      <path
         d="m 400.0873,720.09701 0,1.9524 -18.35256,0 q 0.26032,4.12173 2.47304,6.29106 2.23441,2.14764 6.20429,2.14764 2.29949,0 4.44713,-0.56402 2.16934,-0.56403 4.29528,-1.69208 l 0,3.77463 q -2.14764,0.91112 -4.40374,1.38838 -2.25611,0.47725 -4.57729,0.47725 -5.81382,0 -9.21967,-3.38416 -3.38416,-3.38416 -3.38416,-9.15458 0,-5.96567 3.21062,-9.45829 3.2323,-3.51432 8.69902,-3.51432 4.90269,0 7.74452,3.16723 2.86352,3.14553 2.86352,8.56886 z m -3.99158,-1.17144 q -0.0434,-3.27569 -1.84393,-5.22809 -1.77885,-1.9524 -4.72914,-1.9524 -3.34078,0 -5.35826,1.88732 -1.99578,1.88732 -2.29949,5.31486 l 14.23082,-0.0217 z"
         style="stroke:#0095cb;stroke-opacity:1;fill:#0095cb;fill-opacity:1"
         id="path4162"
         inkscape:connector-curvature="0" />
    </g>
    <g
       style="font-style:normal;font-weight:normal;font-size:43.07938766px;line-height:125%;font-family:sans-serif;letter-spacing:0px;word-spacing:0px;fill:#0095cb;fill-opacity:1;stroke:#0095cb;stroke-width:1.07698464px;stroke-linecap:butt;stroke-linejoin:miter;stroke-opacity:1"
       id="text4168"
       transform="translate(-139.9681,200.2114)">
      <path
         d="m 230.91229,714.38312 -13.98987,-38.9229 4.43835,0 11.94949,33.95867 9.97052,-33.81581 4.41732,0 -11.96883,38.78004 z"
         style="stroke-width:1.07698464px;stroke:#0095cb;stroke-opacity:1;fill:#0095cb;fill-opacity:1"
         id="path4173"
         inkscape:connector-curvature="0"
         sodipodi:nodetypes="cccccccc" />
      <path
         d="m 251.16885,690.82408 3.87042,0 0,23.55904 -3.87042,0 z m 0,-15.1712 3.87042,0 0,2.90112 -3.87042,0 z"
         style="stroke-width:1.07698464px;stroke:#0095cb;stroke-opacity:1;fill:#0095cb;fill-opacity:1"
         id="path4175"
         inkscape:connector-curvature="0"
         sodipodi:nodetypes="cccccccccc" />
      <path
         d="m 283.26805,701.63599 0,1.89314 -17.79549,0 q 0.25242,3.99662 2.39797,6.10011 2.16659,2.08245 6.01597,2.08245 2.2297,0 4.31215,-0.54691 2.10348,-0.5469 4.1649,-1.64071 l 0,3.66006 q -2.08245,0.88346 -4.27008,1.34623 -2.18762,0.46277 -4.43835,0.46277 -5.63734,0 -8.93982,-3.28144 -3.28143,-3.28144 -3.28143,-8.87671 0,-5.78458 3.11315,-9.1712 3.1342,-3.40764 8.43498,-3.40764 4.75388,0 7.50945,3.07109 2.7766,3.05005 2.7766,8.30876 z m -3.87042,-1.13588 q -0.0421,-3.17626 -1.78796,-5.0694 -1.72486,-1.89314 -4.5856,-1.89314 -3.23937,0 -5.19561,1.83004 -1.9352,1.83003 -2.22969,5.15354 l 13.79886,-0.021 z"
         style="stroke-width:1.07698464px;stroke:#0095cb;stroke-opacity:1;fill:#0095cb;fill-opacity:1"
         id="path4177"
         inkscape:connector-curvature="0" />
      <path
         d="m 309.20402,700.16355 0,14.21957 -3.87041,0 0,-14.09336 q 0,-3.34454 -1.30416,-5.00629 -1.30416,-1.66176 -3.91248,-1.66176 -3.1342,0 -4.9432,1.99832 -1.80899,1.99831 -1.80899,5.44802 l 0,13.31507 -3.89145,0 0,-23.55904 3.89145,0 0,3.66006 q 1.3883,-2.12452 3.2604,-3.17626 1.89314,-1.05174 4.35421,-1.05174 4.05973,0 6.14218,2.52418 2.08245,2.50315 2.08245,7.38323 z"
         style="stroke-width:1.07698464px;stroke:#0095cb;stroke-opacity:1;fill:#0095cb;fill-opacity:1"
         id="path4179"
         inkscape:connector-curvature="0" />
      <path
         d="m 336.54934,700.16355 0,14.21957 -3.87042,0 0,-14.09336 q 0,-3.34454 -1.30416,-5.00629 -1.30416,-1.66176 -3.91248,-1.66176 -3.13419,0 -4.94319,1.99832 -1.809,1.99831 -1.809,5.44802 l 0,13.31507 -3.89145,0 0,-23.55904 3.89145,0 0,3.66006 q 1.3883,-2.12452 3.2604,-3.17626 1.89314,-1.05174 4.35422,-1.05174 4.05973,0 6.14218,2.52418 2.08245,2.50315 2.08245,7.38323 z"
         style="stroke-width:1.07698464px;stroke:#0095cb;stroke-opacity:1;fill:#0095cb;fill-opacity:1"
         id="path4181"
         inkscape:connector-curvature="0" />
      <path
         d="m 355.01794,702.54049 q -4.69077,0 -6.49977,1.07278 -1.809,1.07278 -1.809,3.66007 0,2.06141 1.34623,3.28143 1.36727,1.19899 3.70214,1.19899 3.21833,0 5.15354,-2.27176 1.95624,-2.2928 1.95624,-6.07908 l 0,-0.86243 -3.84938,0 z m 7.71979,-1.59865 0,13.44128 -3.87041,0 0,-3.57593 q -1.32519,2.14556 -3.30247,3.17627 -1.97728,1.00967 -4.83802,1.00967 -3.61799,0 -5.76355,-2.01935 -2.12452,-2.04038 -2.12452,-5.44803 0,-3.97558 2.65039,-5.99493 2.67143,-2.01935 7.95118,-2.01935 l 5.42699,0 0,-0.37862 q 0,-2.67143 -1.76693,-4.12284 -1.74589,-1.47244 -4.92215,-1.47244 -2.01935,0 -3.93352,0.48381 -1.91417,0.4838 -3.6811,1.4514 l 0,-3.57592 q 2.12452,-0.82036 4.12283,-1.22003 1.99831,-0.42069 3.89145,-0.42069 5.11147,0 7.63565,2.65039 2.52418,2.65039 2.52418,8.03531 z"
         style="stroke-width:1.07698464px;stroke:#0095cb;stroke-opacity:1;fill:#0095cb;fill-opacity:1"
         id="path4183"
         inkscape:connector-curvature="0" />
    </g>
  </g>
</svg>
