<?xml version="1.0" encoding="UTF-8" standalone="no"?>
<!-- Created with Inkscape (http://www.inkscape.org/) -->

<svg
   xmlns:dc="http://purl.org/dc/elements/1.1/"
   xmlns:cc="http://creativecommons.org/ns#"
   xmlns:rdf="http://www.w3.org/1999/02/22-rdf-syntax-ns#"
   xmlns:svg="http://www.w3.org/2000/svg"
   xmlns="http://www.w3.org/2000/svg"
   xmlns:sodipodi="http://sodipodi.sourceforge.net/DTD/sodipodi-0.dtd"
   xmlns:inkscape="http://www.inkscape.org/namespaces/inkscape"
   id="svg8575"
   version="1.1"
   inkscape:version="0.48.4 r9939"
   width="483"
   height="322"
   sodipodi:docname="meetup_logo.gif">
  <metadata
     id="metadata8581">
    <rdf:RDF>
      <cc:Work
         rdf:about="">
        <dc:format>image/svg+xml</dc:format>
        <dc:type
           rdf:resource="http://purl.org/dc/dcmitype/StillImage" />
        <dc:title></dc:title>
      </cc:Work>
    </rdf:RDF>
  </metadata>
  <defs
     id="defs8579" />
  <sodipodi:namedview
     pagecolor="#ffffff"
     bordercolor="#666666"
     borderopacity="0"
     objecttolerance="10"
     gridtolerance="10"
     guidetolerance="10"
     inkscape:pageopacity="0"
     inkscape:pageshadow="2"
     inkscape:window-width="1920"
     inkscape:window-height="998"
     id="namedview8577"
     showgrid="false"
     fit-margin-top="0"
     fit-margin-left="0"
     fit-margin-right="0"
     fit-margin-bottom="0"
     inkscape:zoom="1.0365043"
     inkscape:cx="518.05951"
     inkscape:cy="251.36435"
     inkscape:window-x="0"
     inkscape:window-y="33"
     inkscape:window-maximized="1"
     inkscape:current-layer="svg8575" />
  <g
     id="g9361"
     transform="translate(39.067803,161)">
    <rect
       ry="0"
       y="-79.817795"
       x="-36.838982"
       height="206.70763"
       width="476.17798"
       id="rect8591"
       style="fill:#ffffff;fill-opacity:0;stroke:none" />
    <g
       transform="translate(-39.567803,-161)"
       id="g8585">
      <path
         sodipodi:nodetypes="sscccsscccsscccsscssccccccccccssssssssssscsscccssssssssssssccsssssssssssscsscsccssssscccsssssssscssscssssssssssccssssssssscssssscsssssssssssscsssssscsssssssssscsssssssssssssssssssss"
         inkscape:connector-curvature="0"
         id="path8589"
         d="M 20.241743,319.87493 C 13.794418,317.39708 6.3213482,310.31466 2.9636117,303.5 L 0.5,298.5 0.5,161 0.5,23.5 2.9636117,18.5 C 6.4209291,11.483234 13.781917,4.5994412 20.525969,2.0761681 L 26.075025,0 242,0 l 215.92497,0 5.72841,2.1432696 c 6.88558,2.5762267 14.46862,9.7137584 17.65968,16.6221724 L 483.5,23.5 l 0,137.5 0,137.5 -2.18694,4.73456 c -3.19106,6.90841 -10.7741,14.04594 -17.65968,16.62217 L 457.92497,322 241.71249,321.94789 C 27.220796,321.8962 25.45815,321.87971 20.241743,319.87493 z M 478,182.5 478,86 242,86 6,86 l 0,96.5 0,96.5 236,0 236,0 z M 380.13867,265 c -1.92055,-1.42627 -5.27814,-19.79933 -6.666,-36.47694 -0.67537,-8.11584 -1.02164,-9.23346 -3.60985,-11.65121 C 365.75259,213.03233 366.44795,208 371.08871,208 c 1.74802,0 2.78392,-3.38253 3.52189,-11.5 0.98602,-10.84611 5.53149,-27.83082 9.61953,-35.94459 C 389.16241,150.76603 401.83366,140 408.42314,140 c 2.16056,0 7.96163,1.88654 15.07686,4.90307 1.1,0.46635 3.26338,1.35608 4.8075,1.97718 3.62454,1.45791 7.36906,9.48229 8.22992,17.63643 0.76388,7.2355 -0.83645,16.86358 -3.96484,23.85364 -4.82966,10.79136 -25.33751,29.10315 -35.51444,31.71142 L 392,221.3781 l 0.0309,9.56095 c 0.0383,11.86154 1.45396,23.14516 3.61315,28.79893 0.9046,2.36863 1.31708,4.63408 0.91663,5.03431 -0.81204,0.81162 -15.36402,1.0134 -16.42199,0.22771 z m 22.28216,-68.05479 c 4.08477,-3.88013 8.57,-9.24101 9.96717,-11.91305 3.07858,-5.88767 4.79055,-15.66161 3.96844,-22.65649 -0.93783,-7.97952 -1.81679,-8.55315 -5.95145,-3.88402 -6.83315,7.71646 -10.93868,16.74924 -14.07025,30.9567 C 393.54196,202.1188 393.2571,204 394.13126,204 c 0.47449,0 4.2048,-3.17466 8.28957,-7.05479 z m -126.21484,14.44951 c -0.64409,-10.19105 -1.39142,-18.88573 -1.66074,-19.3215 -0.26932,-0.43578 -3.97709,-1.10834 -8.23949,-1.49459 C 257.54138,189.78442 256,188.94022 256,184.93426 c 0,-4.48435 3.21107,-6.07079 10.7288,-5.30057 l 6.2712,0.6425 -0.0439,-3.8881 C 272.9319,174.24964 272.48246,169.125 271.95725,165 268.11083,134.79043 267.39303,113.35687 269.99828,106.50456 270.79854,104.39971 271.59814,104 275.0085,104 c 3.91924,0 13.13899,3.81158 14.48403,5.9879 0.34874,0.56426 0.85855,13.28532 1.13291,28.26902 0.64247,35.08602 0.65246,32.73183 -0.15485,36.49308 -0.61986,2.88792 -0.45414,3.25 1.48749,3.25 1.79499,0 2.12766,-0.49092 1.8635,-2.75 -0.27299,-2.33452 0.0818,-2.79664 2.34819,-3.05868 2.11691,-0.24476 4.03238,0.98891 9.25,5.95753 3.61913,3.44642 6.58024,6.79675 6.58024,7.44518 0,1.43237 -3.5451,2.23172 -17.70626,3.99242 l -4.20627,0.52298 0.4979,18.82232 c 0.56468,21.34708 1.14538,19.87876 -8.14685,20.59954 l -5.06148,0.39261 z m -146.599,16.02349 c -0.33385,-0.86998 -0.61767,-2.33248 -0.63073,-3.25 -0.013,-0.91751 -1.1758,-4.36821 -2.58387,-7.66821 -2.8551,-6.69126 -7.80069,-22.3432 -9.47919,-30 -1.88122,-8.58156 -4.074,-15.67253 -4.66404,-15.08249 -0.3112,0.3112 -0.93148,9.45707 -1.3784,20.32415 -0.44691,10.86709 -1.40485,21.78334 -2.12875,24.25834 l -1.31618,4.5 -9.876678,0.9135 -9.876675,0.91351 -2.215521,-2.77853 c -1.218536,-1.52819 -5.038184,-7.45843 -8.488107,-13.1783 -3.449922,-5.71988 -6.399364,-10.273 -6.554314,-10.11805 -0.15495,0.15495 0.335148,4.69841 1.089108,10.09656 0.753959,5.39816 1.147572,10.39666 0.874694,11.10776 -0.877723,2.28731 -10.769509,5.89365 -15.775245,5.75133 -4.617639,-0.13129 -5.602023,-2.04881 -7.082131,-13.79553 -2.477386,-19.66152 -2.751194,-25.38512 -2.024727,-42.32444 l 0.717497,-16.73016 4.407486,-1.17883 c 7.090242,-1.89635 14.970587,-1.53334 17.134456,0.7893 1.00847,1.08247 5.843169,9.74497 10.743774,19.25 L 89.409638,186.5 90.671349,177 c 1.901531,-14.3175 8.396293,-35.87571 12.860941,-42.68963 1.66936,-2.54776 1.82876,-2.57767 10.27589,-1.92837 10.07796,0.77465 11.58518,1.77358 13.6099,9.02015 4.5162,16.16372 6.05427,22.65233 10.60283,44.72968 1.09143,5.29751 2.65822,11.54159 3.48176,13.87573 0.82353,2.33414 1.49733,5.07341 1.49733,6.08727 0,1.01386 1.125,5.28972 2.5,9.50192 2.52757,7.743 3.04204,10.27862 1.84201,9.07859 -0.3619,-0.36189 -1.26299,-0.15588 -2.00244,0.4578 -1.06925,0.8874 -11.60321,3.67442 -14.48258,3.83173 -0.35366,0.0193 -0.91616,-0.67667 -1.25,-1.54666 z m 40.08328,-0.51544 c -4.74735,-1.11693 -6.81192,-2.21032 -13.54452,-7.17311 -7.74299,-5.70759 -8.97229,-9.11268 -9.10836,-25.22966 -0.13778,-16.32033 0.47782,-22.22143 3.22495,-30.91418 2.51841,-7.96898 8.0037,-14.68908 17.09996,-20.94936 6.17736,-4.25141 6.73597,-4.27898 18.93737,-0.93468 4.63429,1.27022 6.11028,2.19029 7.34545,4.57885 3.17484,6.13946 4.21753,40.08751 1.37264,44.69063 -0.98821,1.59896 -16.11291,1.69149 -23.01451,0.1408 -2.14757,-0.48252 -4.15184,-0.63013 -4.45396,-0.32802 -0.30211,0.30211 -0.53941,3.73679 -0.52733,7.63263 0.026,8.40071 2.16672,13.88142 7.01539,17.9613 2.95607,2.48737 3.82533,2.72011 7.8923,2.11316 2.51369,-0.37515 5.72628,-1.36296 7.13908,-2.19514 3.47236,-2.04531 12.70285,-0.23248 15.84467,3.11183 l 2.18101,2.32158 -5.29721,2.01137 c -9.71908,3.69039 -23.91768,5.08872 -32.10693,3.162 z M 176,170 c 0,-5.5 -0.39774,-10 -0.88386,-10 -1.03173,0 -4.93135,9.24678 -6.11741,14.50563 -0.71771,3.18223 -0.55357,3.73231 1.34176,4.49668 C 175.75455,181.18577 176,180.79535 176,170 z m 57.5,55.31845 c -14.81223,-1.88553 -20.13798,-4.66159 -26.25059,-13.68322 -4.52639,-6.68052 -4.77643,-7.41176 -5.32492,-15.57245 -0.47328,-7.0418 -0.15984,-10.16142 1.76456,-17.56278 5.74726,-22.10419 7.70253,-26.02024 18.71765,-37.48791 5.01605,-5.22213 6.25563,-6.0092 9.43406,-5.99013 2.01258,0.0121 5.62088,0.91208 8.01844,2 2.39757,1.08792 4.90021,1.97804 5.56144,1.97804 0.66123,0 2.24652,0.9729 3.52287,2.162 2.24949,2.09572 2.29917,2.50135 1.62031,13.22979 -0.38519,6.08728 -1.10961,11.56092 -1.60982,12.16364 -0.50022,0.60272 -1.032,6.97736 -1.18174,14.16587 l -0.27226,13.07001 -5.63426,1.57636 c -4.97454,1.39179 -6.49497,1.41237 -12.9851,0.17573 -8.5369,-1.62664 -9.184,-1.23528 -8.55081,5.17145 0.50947,5.15483 5.83833,13.80363 9.75186,15.8274 5.54617,2.86803 16.85718,1.00687 19.63368,-3.23061 1.85311,-2.82819 3.79714,-2.90625 8.03463,-0.3226 4.188,2.55347 4.41366,6.14932 0.5,7.96753 -9.56059,4.44165 -15.66788,5.51799 -24.75,4.36188 z M 231.36971,182.75 c 0.33164,-1.2375 0.59111,-7.2 0.5766,-13.25 -0.0253,-10.54095 -0.0915,-10.87971 -1.58772,-8.11748 C 228.4368,164.93051 223,180.46993 223,182.41479 c 0,1.6665 1.4967,2.39724 5.13337,2.50626 1.92173,0.0576 2.79631,-0.52908 3.23634,-2.17105 z m 93.97724,40.78046 c -5.15556,-3.6111 -9.45063,-18.74761 -11.23087,-39.57939 -0.97833,-11.44813 -0.8352,-16.97849 0.49512,-19.131 0.94168,-1.52366 6.30747,-0.83318 11.11205,1.42993 8.88148,4.18346 8.61402,3.50564 9.48074,24.02664 0.87805,20.78897 1.41254,25.01785 3.0913,24.45826 2.21485,-0.73828 10.3536,-13.84022 11.58714,-18.65324 0.70622,-2.75553 1.13966,-9.74154 1.01751,-16.40007 -0.29459,-16.059 0.78338,-17.07785 12.38652,-11.70729 9.25346,4.28301 9.32145,4.41645 7.91693,15.53669 -1.26082,9.98259 -2.58145,14.00843 -5.4543,16.62713 -0.98841,0.90096 -2.83509,3.60096 -4.10373,6 -1.26864,2.39903 -2.90783,4.36188 -3.64265,4.36188 -0.73483,0 -1.5203,0.675 -1.74551,1.5 -0.36397,1.33333 -0.29159,1.33333 0.65136,0 0.58345,-0.825 1.06076,-1.05 1.0607,-0.5 -2.5e-4,2.20321 -9.77948,11.58518 -13.05487,12.52455 -5.28452,1.51558 -17.12509,1.2166 -19.56744,-0.49409 z"
         style="fill:#0D4AD8" />
      <path
         sodipodi:nodetypes="cssssssssssscsscccssssssssssssccsssscssssssssscssssssscccsscssssscssscsscsssssssscscsssssssssssssscsccssssssssssscsssssscssssssssssscssssssssssscsssssssssss"
         inkscape:connector-curvature="0"
         id="path8587"
         d="m 380.13867,265 c -1.87297,-1.39094 -5.27261,-20.12186 -6.71345,-36.98888 -0.64708,-7.57506 -1.03195,-8.77547 -3.57518,-11.15121 C 365.73722,213.01797 366.4568,208 371.12054,208 c 1.8002,0 2.70188,-2.59965 3.34786,-9.65224 1.15388,-12.59745 5.45254,-29.23965 9.76173,-37.79235 C 389.16241,150.76603 401.83366,140 408.42314,140 c 2.16056,0 7.96163,1.88654 15.07686,4.90307 1.1,0.46635 3.26338,1.35608 4.8075,1.97718 1.94529,0.78246 3.53884,2.74014 5.18886,6.37451 4.35058,9.58275 4.21057,21.50922 -0.39648,33.77169 -4.07198,10.83831 -25.27202,30.29509 -36.0073,33.04646 L 392,221.3781 l 0.0309,9.56095 c 0.0383,11.86154 1.45396,23.14516 3.61315,28.79893 0.9046,2.36863 1.31708,4.63408 0.91663,5.03431 -0.81204,0.81162 -15.36402,1.0134 -16.42199,0.22771 z m 22.28216,-68.05479 c 4.13816,-3.93085 8.61212,-9.32156 10.10354,-12.17385 3.10981,-5.9474 4.6671,-15.08552 3.81986,-22.41486 -0.93575,-8.09512 -1.79138,-8.55568 -6.32623,-3.40523 -6.94322,7.88577 -10.56733,16.40089 -14.49142,34.04873 -0.91722,4.125 -1.89125,8.2875 -2.16451,9.25 -0.92462,3.25672 1.60547,1.77511 9.05876,-5.30479 z m -126.21484,14.44951 c -0.64409,-10.19105 -1.39142,-18.88573 -1.66074,-19.3215 -0.26932,-0.43578 -3.97709,-1.10834 -8.23949,-1.49459 C 257.54138,189.78442 256,188.94022 256,184.93426 c 0,-4.48435 3.21107,-6.07079 10.7288,-5.30057 l 6.2712,0.6425 -0.0439,-3.8881 C 272.9319,174.24964 272.48246,169.125 271.95725,165 268.11083,134.79043 267.39303,113.35687 269.99828,106.50456 270.79854,104.39971 271.59814,104 275.0085,104 c 3.9244,0 13.13958,3.81253 14.48775,5.99391 0.49684,0.8039 1.33445,30.7027 1.63904,58.50609 0.0181,1.65 -0.28104,4.4625 -0.6647,6.25 -0.61986,2.88792 -0.45414,3.25 1.48749,3.25 1.79499,0 2.12766,-0.49092 1.8635,-2.75 -0.27349,-2.33885 0.0804,-2.79643 2.36733,-3.06053 2.15366,-0.24871 4.03749,0.98605 9.46369,6.20298 3.72614,3.58243 6.44523,6.84307 6.04243,7.24586 -1.52144,1.52144 -8.36414,3.33266 -12.69502,3.36029 -9.5745,0.0611 -8.97779,-1.35623 -8.41331,19.98328 0.56318,21.29023 1.14269,19.82873 -8.14817,20.54941 l -5.06148,0.39261 z M 129.05134,224.25 c -0.65236,-2.6125 -2.27651,-7.225 -3.60924,-10.25 -2.60349,-5.90938 -5.96243,-17.07093 -9.47955,-31.5 -1.20657,-4.95 -2.55,-9.65698 -2.9854,-10.45995 -1.12439,-2.07361 -1.79318,4.48505 -2.39223,23.45995 -0.27783,8.8 -1.10228,18.025 -1.83211,20.5 l -1.32698,4.5 -9.876678,0.9135 -9.876675,0.91351 -2.215521,-2.77853 c -1.218536,-1.52819 -5.038184,-7.45843 -8.488107,-13.1783 -3.449922,-5.71988 -6.396604,-10.27576 -6.54818,-10.12418 -0.151577,0.15157 0.305904,4.50486 1.016623,9.67397 0.71072,5.16911 1.088839,10.1761 0.840265,11.12665 -0.683366,2.6132 -10.11201,6.31931 -15.674465,6.16116 -4.620236,-0.13137 -5.602411,-2.04683 -7.073809,-13.79553 -2.509582,-20.03833 -2.732899,-24.68507 -2.014762,-41.92293 l 0.713878,-17.1356 4.400152,-1.17686 c 7.08358,-1.89457 14.964078,-1.5305 17.127122,0.79126 1.00847,1.08247 5.843169,9.74497 10.743774,19.25 L 89.409638,186.5 90.671349,177 c 1.859483,-14.0009 7.398583,-32.74462 12.170681,-41.18428 l 1.87484,-3.31572 8.83008,0.2163 c 7.26461,0.17795 9.17893,0.56513 10.79772,2.18393 2.50879,2.50879 7.2473,20.4482 14.21682,53.82311 0.82963,3.97284 2.16769,9.09191 2.97346,11.37573 0.80578,2.28381 1.46505,4.9819 1.46505,5.99576 0,1.01386 1.125,5.28972 2.5,9.50192 2.52757,7.743 3.04204,10.27862 1.84201,9.07859 -0.3619,-0.36189 -1.26299,-0.15588 -2.00244,0.4578 -1.06645,0.88508 -11.58913,3.67137 -14.47086,3.83173 -0.3472,0.0193 -1.16502,-2.10237 -1.81737,-4.71487 z m 40.63893,2.65277 c -4.74735,-1.11693 -6.81192,-2.21032 -13.54452,-7.17311 -7.69024,-5.6687 -8.98554,-9.1758 -9.1336,-24.72966 -0.15147,-15.91274 0.55745,-22.83777 3.19743,-31.23377 2.45923,-7.82115 8.36331,-15.12618 16.90534,-20.91671 5.15691,-3.4958 5.61812,-3.61665 10.88508,-2.85225 9.39841,1.364 14.04894,3.23062 15.63212,6.27439 3.11201,5.98305 4.19125,40.16004 1.41026,44.65977 -0.99269,1.6062 -17.4751,1.66525 -22.99426,0.0824 -1.83307,-0.52572 -3.7188,-0.71733 -4.19049,-0.42581 -0.4717,0.29152 -0.84775,3.76599 -0.83567,7.72103 0.026,8.51497 2.14391,13.96987 7.01539,18.06895 2.95607,2.48737 3.82533,2.72011 7.8923,2.11316 2.51369,-0.37515 5.72628,-1.36296 7.13908,-2.19514 3.47236,-2.04531 12.70285,-0.23248 15.84467,3.11183 l 2.18101,2.32158 -5.29721,2.01137 c -9.71908,3.69039 -23.91768,5.08872 -32.10693,3.162 z M 176.18963,176.25 c 0.47912,-5.78888 -0.26689,-16.25 -1.15881,-16.25 -0.96251,0 -4.89141,9.44802 -6.03209,14.50563 -0.71771,3.18223 -0.55357,3.73231 1.34176,4.49668 4.3654,1.76054 5.52063,1.21694 5.84914,-2.75231 z M 233.5,225.31845 c -14.8144,-1.8858 -20.13834,-4.66142 -26.25059,-13.68567 -4.58592,-6.77074 -4.77003,-7.324 -5.34834,-16.07245 -0.41272,-6.24349 -0.20063,-10.14847 0.6822,-12.56033 0.70462,-1.925 1.99041,-6.7554 2.85731,-10.73423 3.08415,-14.15547 6.41241,-20.26637 17.09539,-31.38826 4.8896,-5.09049 6.13555,-5.87457 9.30479,-5.85555 2.01258,0.0121 5.62088,0.91208 8.01844,2 2.39757,1.08792 4.90021,1.97804 5.56144,1.97804 0.66123,0 2.24652,0.9729 3.52287,2.162 2.24949,2.09572 2.29917,2.50135 1.62031,13.22979 -0.38519,6.08728 -1.10961,11.56092 -1.60982,12.16364 -0.50022,0.60272 -1.032,6.97736 -1.18174,14.16587 l -0.27226,13.07001 -5.63426,1.57636 c -4.97454,1.39179 -6.49497,1.41237 -12.9851,0.17573 -8.13051,-1.5492 -8.83856,-1.23845 -8.86533,3.89088 -0.0208,3.99153 3.54888,11.06325 7.65966,15.17402 2.87263,2.87264 4.09578,3.3917 7.99234,3.3917 6.40509,0 12.25545,-1.95248 14.04806,-4.68836 1.85311,-2.82819 3.79714,-2.90625 8.03463,-0.3226 5.039,3.07234 4.46962,6.24001 -1.59022,8.84688 -8.50124,3.65713 -14.29416,4.54743 -22.65978,3.48253 z M 231.36971,182.75 c 0.33164,-1.2375 0.59111,-7.2 0.5766,-13.25 -0.0253,-10.54095 -0.0915,-10.87971 -1.58772,-8.11748 C 228.4368,164.93051 223,180.46993 223,182.41479 c 0,1.6665 1.4967,2.39724 5.13337,2.50626 1.92173,0.0576 2.79631,-0.52908 3.23634,-2.17105 z m 93.98779,40.78785 C 320.15728,219.89547 315.90285,204.66774 314.03176,183 c -0.91116,-10.55146 -0.73585,-16.05174 0.57944,-18.17993 0.94168,-1.52366 6.30747,-0.83318 11.11205,1.42993 8.88148,4.18346 8.61402,3.50564 9.48074,24.02664 0.87805,20.78897 1.41254,25.01785 3.0913,24.45826 2.21366,-0.73788 10.35329,-13.839 11.58575,-18.64779 0.67589,-2.6372 1.15797,-9.02315 1.07129,-14.19101 -0.0867,-5.16785 -0.15842,-10.41836 -0.15941,-11.6678 -0.002,-2.87236 1.91723,-5.2283 4.25975,-5.2283 2.5158,0 14.37234,5.60225 15.99534,7.55785 1.09284,1.31679 1.12108,3.30724 0.15538,10.95314 -1.26082,9.98259 -2.58145,14.00843 -5.4543,16.62713 -0.98841,0.90096 -2.83509,3.60096 -4.10373,6 -1.26864,2.39903 -2.90783,4.36188 -3.64265,4.36188 -0.73483,0 -1.5203,0.675 -1.74551,1.5 -0.36397,1.33333 -0.29159,1.33333 0.65136,0 0.58345,-0.825 1.06076,-1.05 1.0607,-0.5 -2.5e-4,2.20321 -9.77948,11.58518 -13.05487,12.52455 -5.27075,1.51163 -17.12506,1.21662 -19.55689,-0.4867 z"
         style="fill:#0D4AD8" />
    </g>
  </g>
</svg>
